<svg xmlns="http://www.w3.org/2000/svg" viewBox="0 0 246.56 281.2"><defs><style>.cls-1{fill:#fff;}</style></defs><title>SVG</title><g id="Layer_2" data-name="Layer 2"><g id="Calque_1" data-name="Calque 1"><path class="cls-1" d="M222.58,57.74V9.39A9.38,9.38,0,0,0,213.19,0H186.58a9.38,9.38,0,0,0-9.39,9.39v22L130.6,4.25A15.11,15.11,0,0,0,115.83,4L8.28,62.26A15.81,15.81,0,0,0,0,76.16v36.73a12.81,12.81,0,0,0,6.69,11.25l54.6,29.7a6.19,6.19,0,0,0,9.15-5.44V86.52L121.73,60l116.13,65.54a5.83,5.83,0,0,0,8.7-5.08V79.33A13.28,13.28,0,0,0,240,67.85l-17.37-10.1Z"/><path class="cls-1" d="M177.35,193.41l-54.07,31.51L7.84,157.81A5.22,5.22,0,0,0,0,162.32V207a14.76,14.76,0,0,0,7.58,12.89L113.1,278.59a20.63,20.63,0,0,0,20.29-.12L238,218.69A17,17,0,0,0,246.56,204V173.51a12.58,12.58,0,0,0-6.33-10.91l-55.45-31.69a5,5,0,0,0-7.43,4.31V193.4Z"/></g></g></svg>
