<?xml version="1.0" encoding="UTF-8"?> <svg xmlns="http://www.w3.org/2000/svg" width="736" height="166" viewBox="0 0 736 166" fill="none"><path d="M60.5001 93.57C64.9491 102.643 67.5065 112.978 68.9428 121.245C70.3791 113.013 72.9364 102.643 77.3854 93.57C77.981 92.3789 75.6338 82.0795 68.9428 68.4171C62.2166 82.0795 59.9045 92.3789 60.5001 93.57Z" fill="#681D48"></path><path d="M0.175293 1.0509V138.761H137.886V1.0509H0.175293ZM133.927 44.8757C105.201 57.277 82.7454 83.9012 83.8314 91.5031C86.1785 107.933 91.7136 125.519 90.3823 128.041C89.0161 130.564 101.733 109.229 129.303 104.36C134.978 103.344 135.258 105.621 130.914 106.462C112.522 110.07 92.2741 132.49 90.6276 136.274H47.2581C45.6467 132.455 25.3632 110.035 6.97148 106.462C2.62752 105.621 2.90778 103.344 8.58294 104.36C36.153 109.229 48.8346 130.599 47.5033 128.041C46.1371 125.519 51.7072 107.933 54.0543 91.5031C55.1403 83.9363 32.6849 57.277 3.95873 44.8757C2.4874 44.2452 2.59249 42.4936 3.46829 42.8789C47.0129 61.621 55.6307 85.7579 55.876 84.707C57.8377 77.07 61.3409 69.5732 65.755 62.3917C56.2263 45.156 40.1466 24.4171 14.9587 9.8439C13.2071 8.82797 15.239 8.44262 17.3759 9.21332C22.946 11.1751 51.1467 31.4936 68.9078 57.4872C86.669 31.4936 114.87 11.1751 120.44 9.21332C122.577 8.44262 124.608 8.82797 122.857 9.8439C97.6339 24.3821 81.5893 45.156 72.0607 62.3917C76.4747 69.5732 79.9779 77.07 81.9397 84.707C82.2199 85.7579 90.8027 61.656 134.347 42.8789C135.223 42.4936 135.328 44.2452 133.857 44.8757H133.927Z" fill="#681D48"></path><path d="M1.08079 162.705C1.55125 163.166 2.06448 163.441 2.55395 163.441C3.26202 163.441 3.83227 162.862 3.83227 162.144C3.83227 160.086 1 157.092 1 154.36C1 152.564 2.1025 151.304 3.67545 151.304C4.14591 151.304 4.54034 151.404 5.09159 151.665V153.281C4.57836 152.982 4.30273 152.863 3.91306 152.863C3.08619 152.863 2.63473 153.281 2.63473 154.141C2.63473 156.256 5.46701 159.131 5.46701 161.925C5.46701 163.741 4.36451 165 2.75354 165C2.16427 165 1.65104 164.838 1.08079 164.482V162.705Z" fill="#681D48" stroke="#681D48" stroke-width="0.8" stroke-miterlimit="10"></path><path d="M15.4668 151.485H17.1586V164.819H15.4668V151.485Z" fill="#681D48" stroke="#681D48" stroke-width="0.8" stroke-miterlimit="10"></path><path d="M27.1587 151.485H28.5368L31.4451 159.711H31.4831V151.485H33.0371V164.819H31.659L28.7507 156.517H28.7126V164.819H27.1587V151.485Z" fill="#681D48" stroke="#681D48" stroke-width="0.8" stroke-miterlimit="10"></path><path d="M48.5829 164.24C47.8938 164.777 47.3045 165 46.5774 165C44.3154 165 43.0371 162.567 43.0371 158.233C43.0371 154.379 44.0778 151.304 46.6155 151.304C47.1287 151.304 47.813 151.566 48.426 152.003V153.737C47.9128 153.219 47.2855 152.901 46.7343 152.901C45.2421 152.901 44.8097 154.797 44.8097 158.152C44.8097 161.726 45.3229 163.403 46.7961 163.403C47.3473 163.403 47.7607 163.185 48.5829 162.443V164.24Z" fill="#681D48" stroke="#681D48" stroke-width="0.8" stroke-miterlimit="10"></path><path d="M58.5878 151.485H63.2639V153.082H60.2748V157.073H63.0072V158.67H60.2748V163.223H63.4207V164.819H58.583V151.485H58.5878Z" fill="#681D48" stroke="#681D48" stroke-width="0.8" stroke-miterlimit="10"></path><path d="M89 151.376H90.6918V164.71H89V151.376Z" fill="#681D48" stroke="#681D48" stroke-width="0.8" stroke-miterlimit="10"></path><path d="M103.876 159.63C103.519 159.711 103.363 159.73 103.168 159.73C101.676 159.73 100.692 158.071 100.692 155.638C100.692 153.205 101.889 151.304 103.462 151.304C105.035 151.304 106.157 152.882 106.157 155.695C106.157 157.672 105.743 159.207 104.978 160.828L103.111 164.781H101.438L103.876 159.63ZM103.443 152.982C102.678 152.982 102.422 154.198 102.422 155.776C102.422 157.354 102.797 158.052 103.443 158.052C104.09 158.052 104.427 157.254 104.427 155.519C104.427 153.785 104.071 152.987 103.443 152.987V152.982Z" fill="#681D48" stroke="#681D48" stroke-width="0.8" stroke-miterlimit="10"></path><path d="M116.157 164.52C118.357 160.828 119.616 157.634 119.616 155.358C119.616 153.999 118.946 153.12 117.906 153.12C117.492 153.12 117.121 153.238 116.432 153.557V151.784C117.159 151.447 117.73 151.304 118.338 151.304C120.206 151.304 121.346 152.744 121.346 155.039C121.346 157.116 120.519 159.174 118.557 163.085H121.622V164.781H116.157V164.52Z" fill="#681D48" stroke="#681D48" stroke-width="0.8" stroke-miterlimit="10"></path><path d="M135.062 161.122H131.622V159.587L135.181 151.304H136.754V159.929H137.481V161.127H136.754V164.781H135.062V161.127V161.122ZM135.062 154.574H135.024L132.781 159.925H135.062V154.574Z" fill="#681D48" stroke="#681D48" stroke-width="0.8" stroke-miterlimit="10"></path><path d="M162.504 1.0509H157.994V164.685H162.504V1.0509Z" fill="#681D48"></path><path fill-rule="evenodd" clip-rule="evenodd" d="M363.782 68.7035C354.978 68.7035 350.576 67.2417 345.419 62.7578C342.561 60.212 340.705 57.8962 338.554 54.0364C324.741 52.7225 316.397 42.5393 316.397 27.0182C316.397 18.5268 318.795 11.6614 323.492 6.94754C327.812 2.54579 334.218 0 340.869 0C348.277 0 354.847 3.00567 359.314 8.49144C363.256 13.271 365.178 19.463 365.178 27.0182C365.178 35.5918 362.714 42.4572 358.082 47.2531C354.847 50.4888 351.677 52.1969 346.125 53.6587C351.759 63.0699 356.555 66.092 366.426 66.4697V68.7035H363.798H363.782ZM340.771 51.4906C346.174 51.4906 351.036 48.797 353.664 44.3132C356.128 39.9935 357.294 34.672 357.294 27.3303C357.294 19.5287 356.21 14.125 353.746 9.95321C351.118 5.40364 346.109 2.62791 340.541 2.62791C335.449 2.62791 330.9 5.09158 328.108 9.49333C325.48 13.7308 324.248 19.1345 324.248 27.1003C324.248 34.2778 325.102 39.1395 327.336 43.4591C329.881 48.4028 335.055 51.4906 340.771 51.4906ZM240.269 0.771973H243.751L265.284 52.8046H257.252L250.387 35.5097H229.626L223.073 52.8046H217.751L240.269 0.771973ZM249.369 32.8818L239.793 8.72141L230.612 32.8818H249.369ZM182.242 1.31396H197.057C204.464 1.31396 206.714 1.69173 210.262 3.71193C214.04 5.79784 216.208 9.57546 216.208 14.1415C216.208 20.9248 211.806 24.8666 202.69 26.0985V26.2627C206.238 26.4926 207.864 26.8047 210.098 27.7245C214.894 29.6626 217.587 33.8179 217.587 39.1559C217.587 44.4938 214.73 48.797 209.638 50.9651C206.238 52.3611 203.15 52.821 195.891 52.821H182.226V1.31396H182.242ZM195.907 25.0966C204.169 25.0966 208.57 21.2368 208.57 13.9772C208.57 10.6595 207.421 7.88374 205.253 6.1756C202.707 4.25394 200.309 3.71193 194.215 3.71193H189.436V25.0966H195.907ZM195.759 50.4231C205.565 50.4231 209.802 46.9411 209.802 38.926C209.802 30.9108 205.63 27.5767 196.449 27.5767H189.419V50.4231H195.743H195.759ZM278.029 1.31396H269.374V52.8046H272.543V5.86354L304.571 53.1824H309.055V1.31396H305.967V42.3751L278.029 1.31396ZM407.372 47.171C410 43.689 411.002 39.8293 411.002 32.9639H410.985V1.31396H407.503V32.9639C407.503 39.0574 406.649 42.605 404.646 45.4629C402.182 48.8627 397.698 51.0308 392.689 51.0308C387.679 51.0308 383.277 48.797 381.191 45.1672C379.73 42.5393 378.958 38.8274 378.958 33.818V1.31396H371.78V32.1262C371.78 38.8274 372.47 42.3915 374.408 45.6271C377.43 50.8665 383.754 53.8065 391.703 53.8065C398.569 53.8065 404.136 51.4907 407.372 47.171ZM420.906 1.31396H452.408V3.94188H428.1V25.0144H449.78V27.6424H428.1V50.1767H453.64V52.8046H420.906V1.31396ZM195.923 77.0798H182.488V77.0963V128.587H194.15C205.105 128.587 209.671 127.733 214.762 124.793C221.94 120.637 226.03 112.672 226.03 102.718C226.03 93.455 222.564 85.7355 216.388 81.5637C211.215 77.9996 206.895 77.0798 195.923 77.0798ZM212.906 120.161C209.194 124.481 204.415 126.025 195.069 126.025H189.682V79.6256H196.236C203.725 79.6256 208.521 81.0217 211.987 84.3394C215.994 88.0514 218.162 94.539 218.162 102.866C218.162 110.356 216.388 116.154 212.906 120.161ZM233.355 77.0798H264.841V79.7077H240.532V100.78H262.229V103.392H240.532V125.943H266.072V128.57H233.355V77.0798ZM278.916 77.0798H271.739V128.57H302.535V125.86H278.916V77.0798ZM343.202 108.73C343.202 115.595 342.2 119.455 339.572 122.937C336.336 127.257 330.768 129.572 323.903 129.572C315.953 129.572 309.63 126.632 306.608 121.393C304.67 118.141 303.98 114.593 303.98 107.876V77.0798H311.157V109.584C311.157 114.593 311.929 118.305 313.391 120.933C315.477 124.563 319.879 126.797 324.888 126.797C329.898 126.797 334.382 124.629 336.862 121.245C338.866 118.387 339.72 114.84 339.72 108.746V77.0963H343.202V108.73ZM367.805 77.0798H352.991H352.974V128.57H366.639C373.899 128.57 376.987 128.111 380.387 126.715C385.478 124.546 388.336 120.227 388.336 114.905C388.336 109.584 385.642 105.428 380.846 103.49C378.613 102.571 376.987 102.259 373.439 102.029V101.864C382.555 100.632 386.956 96.6906 386.956 89.9073C386.956 85.3578 384.788 81.5637 381.011 79.4778C377.463 77.474 375.213 77.0798 367.805 77.0798ZM379.319 89.7431C379.319 97.0027 374.917 100.862 366.656 100.862L366.672 100.846H360.184V79.4614H364.964C371.057 79.4614 373.455 80.0198 376.001 81.9415C378.169 83.6496 379.319 86.4253 379.319 89.7431ZM380.551 114.692C380.551 122.707 376.313 126.189 366.508 126.189H366.491H360.168V103.343H367.198C376.379 103.343 380.551 106.677 380.551 114.692ZM411.051 76.5378H414.5L436.033 128.57H428.001L421.136 111.276H400.375L393.822 128.57H388.5L411.051 76.5378ZM420.118 108.648L410.542 84.4873L401.361 108.648H420.118ZM474.416 122.707C476.732 119.685 477.882 116.679 478.506 111.736H478.473H471.148C470.918 116.137 470.31 118.535 468.914 120.999C466.91 124.694 462.427 127.175 457.729 127.175C448.006 127.175 442.832 118.913 442.832 102.932C442.832 86.9511 448.006 78.5418 457.811 78.5418C462.377 78.5418 466.615 80.7919 468.783 84.3396C470.261 86.6555 470.869 88.8892 471.181 92.7489H478.506C478.046 88.7414 477.274 86.3434 475.418 83.7976C471.936 79.0181 465.449 76.0781 458.271 76.0781C443.916 76.0781 434.965 86.3434 434.965 102.866C434.965 119.389 443.851 129.655 458.206 129.655C464.841 129.655 470.951 127.027 474.416 122.707ZM533.693 122.937C529.061 127.651 524.429 129.572 517.794 129.572C507.216 129.572 499.579 123.545 499.579 115.218C499.579 111.588 501.205 108.188 504.211 105.642C506.379 103.786 507.988 102.784 512.012 100.55C506.839 94.687 505.377 91.8291 505.377 87.5095C505.377 80.7919 511.093 76.0945 519.354 76.0945C527.074 76.0945 532.247 80.4962 532.247 87.0496C532.247 90.5316 530.621 93.5372 527.534 95.541C525.448 96.9371 524.216 97.6269 519.896 99.4829L535.877 115.842C538.505 110.832 539.359 107.268 539.359 101.717H542.447C542.447 107.202 541.215 111.522 537.897 117.78L549.082 128.587H539.671L533.726 122.953L533.693 122.937ZM513.704 102.472C508.842 104.87 506.757 108.27 506.757 113.821C506.757 121.623 511.848 127.175 519.026 127.175C524.035 127.175 528.437 125.089 531.837 120.999L513.704 102.472ZM520.044 96.8386C524.511 94.6705 526.992 90.8108 526.992 86.1134C526.992 81.416 523.986 78.2297 519.502 78.2297C515.018 78.2297 511.93 81.1696 511.93 85.5714C511.93 89.4311 512.932 91.2871 518.27 97.6926L520.044 96.8386ZM605.697 122.707C608.013 119.685 609.163 116.679 609.787 111.736H609.738H602.396C602.166 116.137 601.558 118.535 600.162 120.999C598.158 124.694 593.691 127.175 588.977 127.175C579.254 127.175 574.08 118.913 574.08 102.932C574.08 86.9511 579.254 78.5418 589.059 78.5418C593.625 78.5418 597.863 80.7919 600.031 84.3396C601.509 86.6555 602.117 88.8892 602.429 92.7489H609.77C609.311 88.7414 608.539 86.3434 606.683 83.7976C603.217 79.0181 596.729 76.0781 589.552 76.0781C575.197 76.0781 566.246 86.3434 566.246 102.866C566.246 119.389 575.131 129.655 589.486 129.655C596.122 129.655 602.232 127.027 605.697 122.707ZM624.487 77.0798H617.31V128.57H624.487V77.0798ZM666.287 77.0798H634.785V128.57H667.519V125.943H641.963V103.392H663.659V100.78H641.963V79.7077H666.287V77.0798ZM182.521 149.692H191.571V150.448H184.574V156.492H190.815V157.248H184.574V163.719H191.916V164.474H182.521V149.692ZM202.97 149.692L207.864 157.395L202.756 164.474H204.432L208.39 157.954L212.447 164.474H215.025L209.95 156.426L214.828 149.692H213.153L209.392 155.901L205.466 149.692H202.97ZM226.604 149.692H230.611C232.944 149.692 233.978 149.906 234.98 150.645C235.949 151.351 236.442 152.419 236.442 153.88C236.442 155.342 235.916 156.525 234.865 157.198C233.88 157.872 232.779 158.085 230.447 158.085H228.657V164.474H226.587V149.692H226.604ZM230.858 157.395C233.091 157.395 234.175 156.245 234.175 153.897C234.175 151.548 233.091 150.382 230.858 150.382H228.657V157.412H230.858V157.395ZM257.318 149.692H248.285V164.474H257.679V163.719H250.338V157.248H256.563V156.492H250.338V150.448H257.318V149.692ZM269.817 149.692H274.088C276.108 149.692 277.241 149.955 278.194 150.645C279.097 151.302 279.59 152.304 279.59 153.503C279.59 155.605 278.276 156.821 275.648 157.182V157.231C277.882 157.346 278.571 158.052 279.196 160.335L280.296 164.474H278.062L277.192 160.845C276.765 159.071 276.551 158.545 276.075 158.151C275.566 157.74 274.892 157.609 273.348 157.609H271.87V164.474H269.801V149.692H269.817ZM273.94 156.903C276.124 156.903 277.372 155.72 277.372 153.601C277.372 152.517 276.978 151.532 276.338 151.056C275.763 150.596 274.991 150.399 273.775 150.399H271.887V156.919H273.94V156.903ZM290.381 150.448H295.817V164.474H297.87V150.448H303.274V149.692H290.381V150.448ZM316.824 149.692H314.771V164.474H316.824V149.692ZM331.166 160.286L331.163 160.237L331.179 160.286H331.166ZM331.166 160.286C331.23 161.318 331.298 161.757 331.524 162.323C331.967 163.407 333.068 164.097 334.464 164.097C335.417 164.097 336.32 163.768 336.928 163.193C337.42 162.75 337.667 162.158 337.667 161.337C337.667 160.516 337.338 159.76 336.731 159.202C336.271 158.791 335.86 158.578 334.628 158.085L333.216 157.51C331.688 156.886 331.146 156.623 330.538 156.049C329.783 155.342 329.389 154.472 329.389 153.453C329.389 150.99 331.36 149.413 334.448 149.413C337.535 149.413 339.342 150.908 339.408 153.651H337.338C337.273 152.649 337.19 152.238 336.911 151.68C336.468 150.694 335.433 150.103 334.234 150.103C332.542 150.103 331.343 151.22 331.343 152.747C331.343 154.028 332.082 154.8 334.053 155.589L335.646 156.213C336.977 156.722 337.585 157.05 338.159 157.527C339.096 158.282 339.605 159.366 339.605 160.615C339.605 163.259 337.667 164.803 334.349 164.803C331.031 164.803 329.192 163.226 329.126 160.286H331.166ZM351.923 149.692H360.956V150.448H353.976V156.492H360.201V157.248H353.976V163.719H361.318V164.474H351.923V149.692ZM393.576 149.545H392.574L386.103 164.475H387.63L389.519 159.514H395.481L397.452 164.475H399.751L393.576 149.545ZM392.442 151.811L395.185 158.759H389.798L392.442 151.811ZM411.067 149.692H413.547L421.579 161.485V149.692H422.466V164.589H421.168L411.971 150.99V164.474H411.067V149.692ZM439.827 149.692H435.983V164.474H439.334C442.471 164.474 443.785 164.244 445.247 163.39C447.3 162.191 448.482 159.908 448.482 157.05C448.482 154.39 447.48 152.172 445.706 150.973C444.212 149.955 442.98 149.692 439.827 149.692ZM444.705 162.06C443.637 163.308 442.257 163.751 439.58 163.751H438.036V150.431H439.925C442.077 150.431 443.44 150.825 444.442 151.778C445.592 152.846 446.216 154.702 446.216 157.1C446.216 159.251 445.707 160.91 444.705 162.06ZM477.964 149.692H475.911V164.474H477.964V149.692ZM493.748 149.692H491.268V164.474H492.188V150.99L501.385 164.589H502.667V149.692H501.78V161.485L493.748 149.692ZM516.184 149.692H520.027C523.181 149.692 524.413 149.955 525.907 150.973C527.681 152.172 528.683 154.39 528.683 157.051C528.683 159.908 527.517 162.191 525.447 163.39C523.986 164.244 522.672 164.474 519.535 164.474H516.184V149.692ZM519.781 163.752C522.474 163.752 523.838 163.308 524.905 162.06C525.907 160.91 526.416 159.251 526.416 157.1C526.416 154.702 525.792 152.846 524.643 151.778C523.641 150.826 522.277 150.431 520.126 150.431H518.253V163.752H519.781ZM550.133 149.692H541.083V164.474H550.494V163.719H543.152V157.247H549.377V156.492H543.152V150.448H550.133V149.692ZM562.632 149.692H566.64C568.972 149.692 570.007 149.906 571.009 150.645C571.978 151.351 572.471 152.419 572.471 153.881C572.471 155.342 571.929 156.525 570.894 157.198C569.908 157.872 568.808 158.085 566.492 158.085H564.702V164.474H562.632V149.692ZM566.886 157.395C569.12 157.395 570.204 156.246 570.204 153.897C570.204 151.548 569.12 150.382 566.886 150.382H564.685V157.412H566.886V157.395ZM593.362 149.692H584.312V164.474H593.724V163.719H586.382V157.248H592.607V156.492H586.382V150.448H593.362V149.692ZM605.829 149.692H608.309L616.324 161.485V149.692H617.211V164.589H615.93L606.732 150.99V164.474H605.829V149.692ZM634.588 149.692H630.744V164.474H634.095C637.232 164.474 638.546 164.244 640.008 163.39C642.077 162.191 643.243 159.908 643.243 157.051C643.243 154.39 642.242 152.172 640.468 150.973C638.973 149.955 637.741 149.692 634.588 149.692ZM639.466 162.06C638.398 163.308 637.035 163.752 634.341 163.752H632.814V150.431H634.686C636.838 150.431 638.201 150.826 639.203 151.778C640.353 152.846 640.977 154.702 640.977 157.1C640.977 159.251 640.468 160.91 639.466 162.06ZM655.644 149.692H664.677V150.448H657.697V156.492H663.922V157.247H657.697V163.719H665.038V164.474H655.644V149.692ZM679.624 149.692H677.144V164.474H678.047V150.99L687.245 164.589H688.526V149.692H687.639V161.485L679.624 149.692ZM713.442 159.646C713.261 161.058 712.933 161.929 712.259 162.783C711.274 164.031 709.516 164.786 707.611 164.786C703.489 164.786 700.943 161.83 700.943 157.083C700.943 152.337 703.505 149.397 707.644 149.397C709.714 149.397 711.57 150.234 712.571 151.614C713.097 152.353 713.327 153.027 713.458 154.176H711.356C711.274 153.076 711.093 152.419 710.666 151.762C710.042 150.744 708.827 150.103 707.529 150.103C704.721 150.103 703.226 152.517 703.226 157.1C703.226 161.682 704.721 164.064 707.496 164.064C708.859 164.064 710.141 163.358 710.715 162.29C711.11 161.584 711.29 160.894 711.356 159.629H713.458L713.442 159.646ZM735.139 149.692H726.089V164.474H735.484V163.719H728.158V157.248H734.383V156.492H728.158V150.448H735.139V149.692Z" fill="#626262"></path></svg> 