<svg xmlns="http://www.w3.org/2000/svg" width="1486.25" height="817.323" viewBox="0 0 1486.25 817.323">
  <g id="Group_92402" data-name="Group 92402" transform="translate(-4521.75 2374)">
    <path id="Path_58953" data-name="Path 58953" d="M802.309,221.7a50.167,50.167,0,0,1,40.84-25.785,51.69,51.69,0,0,1,50.595,26.943c19.445-28.406,47.546-30.479,77.415-24.383a41.694,41.694,0,0,1,33.344,40.171,42.669,42.669,0,0,1-27.735,44.986,140.209,140.209,0,0,1-49.192,7.8c2.133-2.743,3.536-4.389,4.816-6.095a33.162,33.162,0,0,0,5-36.27,28.831,28.831,0,0,0-34.075-15.6c-3.841.975-5.485,2.682-4.205,6.827a23.134,23.134,0,0,1,.729,7.071v161.6H823.033V252.175c-.307-19.811-2.194-22.676-20.726-30.478Z" transform="translate(4399.294 -2403.863)" fill-rule="evenodd"/>
    <path id="Path_58954" data-name="Path 58954" d="M1330.718,200.806h-15.056V182.824h16.153V160.758c0-5.181-.425-10.3-.487-15.483,0-15.726-4.511-21.517-19.568-25.541a48.764,48.764,0,0,1,48.035-25.541,49.437,49.437,0,0,1,44.254,38.22,132.646,132.646,0,0,1,1.524,23.1v27h28.344V200.38H1405.45v6.705l.367,125.327c0,3.657.549,7.315.852,10.972a17.853,17.853,0,0,0,12.741,17.495,19.2,19.2,0,0,0,22.554-8.352l2.8-4.083a36.086,36.086,0,0,1-17.736,33.4,66.507,66.507,0,0,1-66.08,2.438c-21.149-10.789-29.93-30.478-30.478-53.337-.546-40.476,0-81.011,0-121.487Z" transform="translate(4321.538 -2388.337)" fill-rule="evenodd"/>
    <path id="Path_58955" data-name="Path 58955" d="M1276.849,367.68,1275.2,370a19.692,19.692,0,0,1-22.067,9.692A18.591,18.591,0,0,1,1239,362.438a46.473,46.473,0,0,1-.365-5.791c-.367-32.49-.977-64.98-.977-97.531a50.167,50.167,0,0,0-30.112-48.765c-29.5-14.142-60.472-15.117-91.923-8.047a60.968,60.968,0,0,0-30.967,15.118,27.126,27.126,0,0,0,9.388,45.535c14.081,5.181,28.894,4.572,44.986,5.181a37.123,37.123,0,0,1-10.3-33.83c1.158-10.729,7.376-17.5,16.458-17.5a15.484,15.484,0,0,1,15.848,16.276c1.037,15.422,1.037,30.966,1.037,46.449v11.4a56.083,56.083,0,0,0-36.574-14.2c-29.015-2.378-53.277,5.608-68.7,32.246-19.079,33.1-6.4,77.659,26.7,89.85a73.148,73.148,0,0,0,78.086-13.837c2.56-2.194,4.937-4.572,7.07-6.583,4.878,5.974,9.143,11.948,14.081,17.19,17.5,18.47,54.921,16.458,72.355,7.558a37.666,37.666,0,0,0,21.763-35.477m-114.416-30.9-.306-.183a63.2,63.2,0,0,1,0,7.742,26.607,26.607,0,0,1-2.378,11.825,29.436,29.436,0,0,1-20.358,11.7c-13.961,1.341-21.822-4.876-24.384-19.08a47.066,47.066,0,0,1,7.985-36.574c8.961-13.166,22.006-12.861,33.344-5.425,3.476,2.378,5,9.387,6.1,14.569a76.352,76.352,0,0,1,0,15.422" transform="translate(4361.815 -2404.221)" fill-rule="evenodd"/>
    <path id="Path_58956" data-name="Path 58956" d="M1522.276,504.356a52.425,52.425,0,0,0,66.14-.609,121.906,121.906,0,0,0,43.277-119.415,55.162,55.162,0,0,0-66.259-41.877c-8.718,1.951-16.4,8.534-24.687,13.105a185.324,185.324,0,0,1,10.85-18.286c26.942-35.477,54.19-70.772,81.314-106.187,1.159-1.463,2.2-3.048,4.088-5.669h-61.324c-17.373,0-31.331,6.1-38.769,22.677s-3.719,30.966,8.413,43.828a18.4,18.4,0,0,1,1.095,2.194c-24.381,2.073-47.974,2.133-67.052-15.482-17.677-16.4-12.983-47.79,8.717-62.237a103.081,103.081,0,0,1,53.644-16.764c40.229-1.462,80.645,0,120.815-2.255,16.7-.854,28.467,3.535,38.158,16.275a88.124,88.124,0,0,0,9.693,9.387l-71.44,104.845a306.689,306.689,0,0,1,29.015,21.152c27.978,25.664,37.55,57.849,31.148,94.91a152.4,152.4,0,0,1-31.818,73.148c-28.652,34.441-65.773,43.279-108.321,33.344a105.811,105.811,0,0,1-60.955-37.672A40.956,40.956,0,0,1,1489,474.183a25.743,25.743,0,1,1,36.023,28.771Z" transform="translate(4297.61 -2404.11)" fill-rule="evenodd"/>
    <path id="Path_58957" data-name="Path 58957" d="M666.75,196.1H737.4a26.986,26.986,0,0,1,.487,4.389c0,76.075.854,152.392-.548,228.162-.732,39.988-17.8,73.149-55.715,90.7a110.88,110.88,0,0,1-87.838,4.511,44.19,44.19,0,0,1-30.478-42.122,22.981,22.981,0,0,1,16.64-22.676,23.715,23.715,0,0,1,27.127,9.814A24.381,24.381,0,0,1,605,497.165c-1.1,1.281-2.255,2.5-3.474,3.841,26.759,7.986,57.42-10.85,63.943-38.891a32.316,32.316,0,0,0,1.218-6.1V386.285c-4.571,3.962-9.386,8.839-14.811,12.862A56.814,56.814,0,0,1,591.53,406.1,54.5,54.5,0,0,1,556.6,355.868c-.976-37.854-.547-75.831-.73-113.745,0-13.594-4.512-19.2-18.289-22.493A43.342,43.342,0,0,1,566.9,197.32c24.992-6.1,56.934,10.667,56.689,48.4,0,33.831.425,67.662,0,101.493a22.616,22.616,0,0,0,21.64,23.834c12.741,0,21.579-9.752,21.579-23.834V204.39Z" transform="translate(4439.699 -2403.93)" fill-rule="evenodd"/>
    <path id="Path_58958" data-name="Path 58958" d="M495.526,765.059A159.336,159.336,0,0,1,526,767.192a242.641,242.641,0,0,1,37.976,14.752c19.75,9.083,39.195,19.385,60.956,22.067a224.2,224.2,0,0,0,42.669.976,41.08,41.08,0,0,0,34.99-23.651,58.586,58.586,0,0,1,11.034,22.433c8.473,30.478-11.521,69.369-47.059,72.782a131.119,131.119,0,0,1-58.335-7.864c-30.112-11.033-55.532-29.929-81.072-48.766-10.424-7.619-21.092-14.934-32-21.822a42.674,42.674,0,0,0-40.538-4.328,80.9,80.9,0,0,1-51.936.367c20.239-11.7,24.75-31.819,28.223-51.63a290.891,290.891,0,0,0,3.841-48.765c.424-74.733,0-149.527,0-224.322a198.284,198.284,0,0,0-1.585-27c-1.219-8.839-4.694-16.824-15.057-18.652a21.213,21.213,0,0,0-23.164,10.362c-.425.67-1.037,1.22-2.316,2.8a41.084,41.084,0,0,1,12.8-29.991c31.027-28.71,90.46-14.812,104.236,24.871a92.964,92.964,0,0,1,4.876,29.686c.122,27.3.163,54.6.163,82.077,0,53.986-.163,108.143-.163,162.3a96.807,96.807,0,0,1-16.275,54.861,29.8,29.8,0,0,0-2.743,4.328Z" transform="translate(4461.823 -2433.786)" fill-rule="evenodd"/>
    <path id="Path_58959" data-name="Path 58959" d="M241.087,341.787V492.411H143.556V220.056c0-19.079-3.78-31.819-26.638-36.878a64,64,0,0,1,40.6-31.576,65.283,65.283,0,0,1,82.84,60.042c1.219,29.686.549,59.494.732,89.18v7.62c57.055-3.17,101.005-32.064,113.562-83.876,10-40.9-10-89.3-47-115.818-27.674-20.543-59.067-26.334-92.289-25.6a237.114,237.114,0,0,0-85.34,16.946c-28.65,11.643-52.91,28.773-67.661,56.446C48.1,183.055,46.878,211.4,52.424,240.66a42.73,42.73,0,0,0,2.926,8.534c1.1,2.682,2.56,5.3,4.206,8.595A39.8,39.8,0,0,1,24.445,243.22,101.486,101.486,0,0,1,.063,176.167C-1.1,137.338,14.083,104.238,37.977,75.04,79.184,25.116,133.009.977,197.379.185A298.686,298.686,0,0,1,331.058,26.579c38.341,18.287,69.43,44.377,83.693,85.34,23.408,67.053,6.705,147.516-67.723,195.062a229.063,229.063,0,0,1-96.677,33.648,76.4,76.4,0,0,0-9.266,1.159Z" transform="translate(4521.749 -2374)" fill-rule="evenodd"/>
    <path id="Path_58960" data-name="Path 58960" d="M821.54,800.868q-34.8,0-50.213-31.272-22.463,25.549-53.736,25.546-21.585,0-35.236-8.368a50.929,50.929,0,0,1-20.041-21.8,65.542,65.542,0,0,1,10.792-72.457q17.177-18.932,47.128-18.939,32.591,0,44.487,14.536V637.9q0-9.25-3.964-15.417a12.808,12.808,0,0,0-11.452-6.167q-17.177,0-17.177,24.228,0,15.853,10.13,24.665a249.824,249.824,0,0,1-28.189-1.542q-13.659-1.537-22.463-7.487T682.8,637.019q0-18.933,21.142-28.63t48.449-9.69q37.877,0,61.224,14.755t23.344,43.385q0,88.534.881,96.461,1.754,19.386,18.94,19.382a17.259,17.259,0,0,0,11.672-4.407,19.052,19.052,0,0,0,6.386-9.69q0,19.388-13.654,30.833T821.54,800.868m-81.926-39.2q13.216,0,25.546-13.655-.442-5.287-.44-30.833,0-12.768-7.487-16.076a34.237,34.237,0,0,0-13.655-3.3q-11.016,0-18.279,11.454a45.96,45.96,0,0,0-7.268,25.105q0,27.313,21.583,27.309" transform="translate(4421.636 -2465.378)"/>
    <path id="Path_58961" data-name="Path 58961" d="M1096.174,800.948q-25.553,0-41.185-17.4T1039.353,738.4V650.752q0-8.807-5.946-13.435a21.323,21.323,0,0,0-13.434-4.624q-12.335,0-18.058,7.929v154.6H929.681V624.764q0-16.289-11.894-16.294a9.29,9.29,0,0,0-3.523.439q8.805-9.682,41.4-9.688,44.924,0,46.248,29.95v5.285q7.928-35.232,57.259-35.235,52.414,0,52.414,56.819v.879q0,88.534.882,96.46,2.2,19.388,18.938,19.382a17.856,17.856,0,0,0,12.113-4.4,19.072,19.072,0,0,0,6.387-9.692q0,19.387-13.874,30.833t-39.86,11.451" transform="translate(4382.207 -2465.458)"/>
    <path id="Path_58962" data-name="Path 58962" d="M1379.848,782.145q-38.76,0-53.293-38.318a53.476,53.476,0,0,1-21.143,23.564q-14.536,9.032-27.308,9.029-33.482,0-55.719-23.565t-22.243-72.9q0-38.752,11.451-60.344,11.449-21.575,28.631-30.392a75.56,75.56,0,0,1,34.795-8.807q36.114,0,48.012,29.51V502.013q0-16.29-11.453-16.294l-3.964.438q4.841-5.285,16.738-7.707a123.615,123.615,0,0,1,24.662-2.423,90.5,90.5,0,0,1,22.024,2.643q24.22,6.174,24.228,27.75,0,220.238.879,228.155,1.753,19.389,18.939,19.383a17.846,17.846,0,0,0,12.112-4.405,19.021,19.021,0,0,0,6.385-9.692q0,19.389-13.872,30.833t-39.862,11.451m-81.483-35.236q9.252,0,16.958-7.487t7.709-22.023v-95.14a2.5,2.5,0,0,1-.881-1.763q-6.606-9.681-18.94-9.688h-.88q-16.3,0-24.226,20.48t-8.368,47.351q0,26.427,7.267,47.348t21.361,20.922" transform="translate(4338.573 -2446.655)"/>
  </g>
</svg>
